<svg width="33" height="33" viewBox="0 0 33 33" fill="none" xmlns="http://www.w3.org/2000/svg">
<g filter="url(#filter0_d_370726_101)">
<path d="M14.7106 8.32552C14.7106 9.35607 15.546 10.1916 16.5766 10.1916C17.6071 10.1916 18.4426 9.35607 18.4426 8.32552C18.4426 7.29496 17.6071 6.4595 16.5766 6.4595C15.546 6.4595 14.7106 7.29496 14.7106 8.32552Z" fill="#999999"/>
<path fill-rule="evenodd" clip-rule="evenodd" d="M16.5 25C23.4036 25 29 19.4036 29 12.5C29 5.59644 23.4036 0 16.5 0C9.59644 0 4 5.59644 4 12.5C4 19.4036 9.59644 25 16.5 25ZM12.0625 8.32546C12.0625 5.83243 14.0835 3.81137 16.5766 3.81137C19.0697 3.81137 21.0907 5.83243 21.0907 8.32546C21.0907 10.8185 19.0697 12.8397 16.5766 12.8397C14.0835 12.8397 12.0625 10.8185 12.0625 8.32546ZM21.1176 15.1617C21.0604 15.2076 19.9774 16.0634 18.1702 16.4316L20.8981 19.1351C21.3778 19.6141 21.3784 20.3912 20.8994 20.8709C20.4205 21.3506 19.6435 21.3514 19.1636 20.8723L16.5153 18.2933L14.1099 20.8557C13.8691 21.1055 13.5479 21.2311 13.2263 21.2311C12.9196 21.2311 12.6126 21.117 12.3744 20.8873C11.8864 20.4168 11.8723 19.6398 12.3428 19.1518L14.932 16.4459C13.0742 16.0864 11.9466 15.2083 11.8885 15.1617C11.3597 14.7376 11.2748 13.9651 11.6989 13.4362C12.1229 12.9074 12.8953 12.8225 13.4242 13.2465C13.4354 13.2556 14.6149 14.1416 16.5153 14.1429C18.4157 14.1416 19.5707 13.2556 19.5819 13.2465C20.1109 12.8225 20.8833 12.9074 21.3073 13.4362C21.7314 13.9651 21.6464 14.7376 21.1176 15.1617Z" fill="#999999"/>
</g>
<defs>
<filter id="filter0_d_370726_101" x="0" y="0" width="33" height="33" filterUnits="userSpaceOnUse" color-interpolation-filters="sRGB">
<feFlood flood-opacity="0" result="BackgroundImageFix"/>
<feColorMatrix in="SourceAlpha" type="matrix" values="0 0 0 0 0 0 0 0 0 0 0 0 0 0 0 0 0 0 127 0" result="hardAlpha"/>
<feOffset dy="4"/>
<feGaussianBlur stdDeviation="2"/>
<feComposite in2="hardAlpha" operator="out"/>
<feColorMatrix type="matrix" values="0 0 0 0 0 0 0 0 0 0 0 0 0 0 0 0 0 0 0.25 0"/>
<feBlend mode="normal" in2="BackgroundImageFix" result="effect1_dropShadow_370726_101"/>
<feBlend mode="normal" in="SourceGraphic" in2="effect1_dropShadow_370726_101" result="shape"/>
</filter>
</defs>
</svg>
